<?xml version="1.0" encoding="utf-8"?>
<!-- Generator: Adobe Illustrator 25.2.0, SVG Export Plug-In . SVG Version: 6.00 Build 0)  -->
<svg version="1.1" id="Layer_1" xmlns="http://www.w3.org/2000/svg" xmlns:xlink="http://www.w3.org/1999/xlink" x="0px" y="0px"
	 viewBox="0 0 487.3 204.2" style="enable-background:new 0 0 487.3 204.2;" xml:space="preserve">
<style type="text/css">
	.st0{fill:none;}
	.st1{fill:#045283;}
	.st2{fill:#F27920;}
</style>
<rect class="st0" width="487.3" height="204.2"/>
<g id="Layer_2_1_">
	<g id="Layer_1-2">
		<path class="st1" d="M44.7,96.7H25.8V84c0-3.7-0.2-6-0.6-6.9c-0.5-1-1.6-1.5-2.7-1.4c-1.6,0-2.5,0.6-3,1.7
			c-0.4,1.1-0.6,3.5-0.6,7.2v33.8c0,3.5,0.2,5.8,0.6,6.9c0.5,1.1,1.6,1.8,2.8,1.6c1.2,0.1,2.3-0.5,2.8-1.6c0.4-1.1,0.7-3.6,0.7-7.6
			v-9.1h18.9v2.8c0,7.5-0.5,12.9-1.6,16c-1.1,3.1-3.4,5.9-7.1,8.3c-4,2.5-8.7,3.7-13.5,3.6c-5.5,0-10.1-1-13.7-3
			c-3.4-1.7-5.9-4.7-7.1-8.3c-1.2-3.5-1.8-8.9-1.8-16V90.7c-0.1-3.9,0.1-7.9,0.5-11.8c0.4-2.8,1.5-5.4,3.2-7.6
			c1.9-2.5,4.5-4.5,7.4-5.7c3.4-1.4,7.2-2.2,10.9-2.1c5.6,0,10.2,1.1,13.8,3.2s6,4.8,7.1,8.1c1.1,3.2,1.7,8.2,1.7,15V96.7z"/>
		<path class="st1" d="M92,109H68.5v12.9c0,2.7,0.2,4.4,0.6,5.2c0.4,0.8,1.3,1.3,2.2,1.2c1.2,0.1,2.3-0.5,2.8-1.5c0.5-1,0.7-3,0.7-6
			v-7.9H92v4.4c0.1,2.8-0.2,5.7-0.7,8.5c-0.6,2.3-1.7,4.5-3.3,6.3c-1.7,2.2-3.9,4-6.5,5.1c-3.1,1.2-6.5,1.8-9.9,1.7
			c-3.5,0.1-6.9-0.5-10.1-1.7c-2.6-0.9-5-2.5-6.8-4.6c-1.6-1.8-2.7-4-3.4-6.4c-0.7-3.3-1-6.7-0.9-10.1V98.7c0-5.2,0.7-9.3,2.1-12.3
			c1.4-3,3.9-5.5,6.9-6.9c3.4-1.7,7.2-2.5,11-2.4c5.1,0,9.3,1,12.6,2.9c3.1,1.7,5.6,4.4,7,7.7c1.3,3.2,2,7.7,2,13.5L92,109z
			 M73.8,99.3v-4.4c0.1-2-0.1-4-0.5-6c-0.3-0.9-1.1-1.4-2-1.3c-1.3,0-2,0.4-2.3,1.1s-0.4,2.8-0.4,6.2v4.4L73.8,99.3z"/>
		<path class="st1" d="M116.4,78.1l-0.3,5.5c1.2-2,2.8-3.7,4.8-4.9c2-1.1,4.3-1.7,6.6-1.6c2.7-0.1,5.4,0.7,7.6,2.2
			c1.9,1.3,3.2,3.3,3.8,5.5c0.7,3.7,1,7.4,0.9,11.2v41.8h-18.1V96.5c0.1-2.5,0-5-0.4-7.5c-0.3-0.9-1-1.3-2.2-1.3
			c-1.1-0.1-2.1,0.5-2.4,1.5c-0.3,1-0.5,3.8-0.5,8.3v40.3H97.9V78.1H116.4z"/>
		<path class="st1" d="M165.2,70.2v9.4h4.9V89h-4.9v31.9c0,3.9,0.2,6.1,0.6,6.6c0.4,0.4,2.1,0.7,5.1,0.7v9.6h-7.3
			c-3,0.1-5.9-0.1-8.8-0.5c-1.8-0.3-3.4-1.2-4.7-2.4c-1.3-1.1-2.2-2.6-2.5-4.3c-0.3-1.6-0.5-5.4-0.5-11.3V89h-3.9v-9.4h3.9v-9.4
			H165.2z"/>
		<path class="st1" d="M192.2,78.1l-0.7,7.8c2.6-5.6,6.5-8.6,11.5-8.9v21c-3.3,0-5.8,0.4-7.3,1.3c-1.5,0.8-2.5,2.1-2.9,3.7
			c-0.4,1.6-0.5,5.3-0.5,11.1v23.5h-18.1V78.1H192.2z"/>
		<path class="st1" d="M223.2,101.2h-17v-4c0-4.6,0.5-8.2,1.6-10.7c1.1-2.5,3.2-4.7,6.4-6.6c3.2-1.9,7.4-2.9,12.5-2.9
			c6.1,0,10.8,1.1,13.9,3.3c2.9,1.8,4.9,4.7,5.6,8c0.6,3.2,0.9,9.7,0.9,19.5v29.9h-17.6v-5.3c-1.9,4.1-6.1,6.6-10.6,6.4
			c-3.1,0-6.2-0.9-8.7-2.7c-2.6-1.8-4-5.7-4-11.7v-4.9c0-4.5,0.7-7.5,2.1-9.1c1.4-1.6,4.9-3.5,10.5-5.7c6-2.3,9.1-3.9,9.6-4.7
			c0.5-1.6,0.8-3.3,0.6-4.9c0-3.1-0.2-5.1-0.7-6.1c-0.4-0.9-1.3-1.5-2.3-1.4c-1.2,0-2,0.4-2.3,1.2c-0.3,0.8-0.4,2.9-0.4,6.2
			L223.2,101.2z M228.9,109.4c-2.9,2.1-4.6,3.9-5.1,5.3c-0.5,2-0.8,4.1-0.7,6.2c0,3.1,0.2,5.1,0.6,6c0.4,0.9,1.4,1.5,2.4,1.3
			c0.9,0.1,1.8-0.3,2.2-1.1c0.3-0.7,0.5-2.6,0.5-5.5V109.4z"/>
		<path class="st1" d="M272,65v72.7h-18.7V65H272z"/>
		<path class="st1" d="M346.1,98.1h-18.9V85.5c0-3.7-0.2-6-0.6-6.9c-0.5-1-1.6-1.5-2.7-1.4c-1.6,0-2.5,0.6-3,1.7s-0.6,3.5-0.6,7.2
			v33.8c0,3.5,0.2,5.8,0.6,6.9c0.5,1.1,1.6,1.8,2.8,1.6c1.2,0.1,2.3-0.5,2.8-1.6c0.4-1.1,0.7-3.6,0.7-7.6V110h18.9v2.8
			c0,7.5-0.5,12.9-1.6,16c-1.1,3.2-3.4,5.9-7.1,8.3c-4,2.5-8.7,3.7-13.5,3.6c-5.5,0-10.1-1-13.7-3c-3.4-1.7-5.9-4.7-7.1-8.3
			c-1.2-3.6-1.8-8.9-1.8-16V92.1c-0.1-3.9,0.1-7.9,0.5-11.8c0.4-2.8,1.5-5.4,3.2-7.6c1.9-2.5,4.5-4.5,7.4-5.7
			c3.4-1.4,7.2-2.2,10.9-2.1c5.6,0,10.2,1.1,13.8,3.2c3.6,2.2,6,4.8,7.1,8.1c1.1,3.2,1.7,8.2,1.7,15L346.1,98.1z"/>
		<path class="st1" d="M419.2,66.4v17.2c1.4-1.6,3.1-3,5-3.9c1.9-0.9,3.9-1.3,6-1.3c2.2-0.1,4.4,0.3,6.5,1.2
			c1.7,0.7,3.1,1.8,4.2,3.3c0.9,1.2,1.5,2.6,1.7,4.1c0.3,2.9,0.4,5.8,0.3,8.6v26.9c0.1,3.3-0.2,6.6-0.9,9.8
			c-0.7,2.3-2.1,4.2-4.1,5.6c-2.2,1.6-4.9,2.4-7.7,2.4c-2.1,0-4.1-0.5-6-1.4c-2-1-3.7-2.5-5.1-4.2l-1.2,4.5h-17V66.4H419.2z
			 M424.7,96.5c0-3.1-0.2-5.1-0.6-6c-0.4-0.9-1.3-1.5-2.3-1.4c-0.9-0.1-1.8,0.4-2.2,1.2c-0.3,0.8-0.5,2.9-0.5,6.2v25.7
			c0,3.2,0.2,5.3,0.6,6.2c0.4,0.9,1.3,1.4,2.2,1.3c1,0.1,1.9-0.5,2.2-1.4c0.3-0.9,0.5-3.2,0.5-6.7L424.7,96.5z"/>
		<path class="st1" d="M485.9,98.6h-16.1v-3.2c0.1-1.8,0-3.5-0.5-5.2c-0.3-0.7-1.1-1.1-2.4-1.1c-0.9-0.1-1.7,0.3-2.3,1
			c-0.6,0.9-0.8,2-0.8,3c-0.1,1.4,0.1,2.7,0.4,4c0.5,1.1,1.3,2.1,2.3,2.8c2.5,1.7,5.1,3.2,7.8,4.5c5.3,2.6,8.7,5,10.4,7.3
			c1.6,2.3,2.5,5.6,2.5,9.9c0,4.9-0.6,8.5-1.9,11c-1.4,2.6-3.6,4.6-6.3,5.7c-3.4,1.4-7,2.1-10.7,2c-4.1,0.1-8.1-0.6-11.8-2.2
			c-3.3-1.4-5.5-3.4-6.8-5.8s-1.8-6.2-1.8-11.1v-2.9h16.1v3.8c0,3.2,0.2,5.3,0.6,6.2c0.4,1,1.4,1.5,2.4,1.4c1,0.1,2-0.2,2.7-1
			c0.5-0.6,0.8-2,0.8-4.1c0-2.8-0.3-4.6-1-5.3c-0.7-0.7-4.2-2.8-10.6-6.4c-5.3-3-8.6-5.7-9.8-8.2c-1.2-2.7-1.8-5.7-1.8-8.7
			c0-4.8,0.6-8.3,1.9-10.5c1.5-2.4,3.7-4.3,6.4-5.2c3.3-1.3,6.9-1.9,10.5-1.8c3.4-0.1,6.8,0.4,10.1,1.5c2.4,0.8,4.6,2.1,6.4,4
			c1.3,1.3,2.2,2.9,2.7,4.6c0.4,2.2,0.5,4.4,0.5,6.6L485.9,98.6z"/>
		<polygon class="st2" points="345.5,139.2 372,78.3 398.3,139.2 372,114.5 		"/>
	</g>
</g>
</svg>
